#define myicon_width 50
#define myicon_height 50
static char myicon_bits[] = {
   0x00, 0x00, 0x00, 0x00, 0x00, 0x00, 0x00, 0x00, 0x00, 0x00, 0x00, 0x00,
   0x00, 0x00, 0x00, 0x00, 0x00, 0x00, 0x00, 0x00, 0x00, 0x00, 0x00, 0xe0,
   0x0f, 0x00, 0x00, 0x00, 0x00, 0x00, 0xfc, 0x7f, 0x00, 0x00, 0x00, 0x00,
   0x80, 0x1f, 0xf0, 0x03, 0x00, 0x00, 0x00, 0xc0, 0x03, 0x80, 0x07, 0x00,
   0x00, 0x00, 0x70, 0x00, 0x00, 0x1c, 0x00, 0x00, 0x00, 0x38, 0x00, 0x00,
   0x38, 0x00, 0x00, 0x00, 0x0c, 0x00, 0x00, 0x60, 0x00, 0x00, 0x00, 0x06,
   0x00, 0x00, 0xc0, 0x00, 0x00, 0x00, 0x03, 0x00, 0x00, 0x80, 0x01, 0x00,
   0x00, 0x01, 0x00, 0x00, 0x00, 0x01, 0x00, 0x80, 0x01, 0x00, 0x00, 0x00,
   0x03, 0x00, 0xc0, 0x00, 0x00, 0x00, 0x00, 0x06, 0x00, 0x40, 0x00, 0x00,
   0x00, 0x00, 0x04, 0x00, 0x40, 0x00, 0x00, 0x00, 0x00, 0x04, 0x00, 0x60,
   0x00, 0x0f, 0x00, 0x00, 0x0c, 0x00, 0x20, 0x80, 0x1f, 0x00, 0x03, 0x08,
   0x00, 0x20, 0xc0, 0x3f, 0xc0, 0x0f, 0x08, 0x00, 0x30, 0xc0, 0x3f, 0xe0,
   0x1f, 0x18, 0x00, 0x10, 0xc0, 0x3f, 0x00, 0x00, 0x10, 0x00, 0x10, 0x80,
   0x1f, 0x00, 0x00, 0x10, 0x00, 0x10, 0x00, 0x0f, 0x00, 0x00, 0x10, 0x00,
   0x10, 0x00, 0x00, 0x01, 0x00, 0x10, 0x00, 0x10, 0x00, 0x00, 0x01, 0x00,
   0x10, 0x00, 0x10, 0x00, 0x80, 0x01, 0x00, 0x10, 0x00, 0x30, 0x00, 0x80,
   0x01, 0x00, 0x18, 0x00, 0x20, 0x00, 0x80, 0x03, 0x00, 0x08, 0x00, 0x20,
   0x00, 0xc0, 0x07, 0x00, 0x08, 0x00, 0x60, 0x00, 0xc0, 0x0f, 0x00, 0x0c,
   0x00, 0x40, 0x00, 0x00, 0x00, 0x00, 0x04, 0x00, 0x40, 0x00, 0x00, 0x00,
   0x00, 0x04, 0x00, 0xc0, 0x00, 0x00, 0x00, 0x00, 0x06, 0x00, 0x80, 0x81,
   0x07, 0x80, 0x03, 0x03, 0x00, 0x00, 0x01, 0x1e, 0xfc, 0x00, 0x01, 0x00,
   0x00, 0x03, 0xf8, 0x3f, 0x80, 0x01, 0x00, 0x00, 0x06, 0xe0, 0x07, 0xc0,
   0x00, 0x00, 0x00, 0x0c, 0x00, 0x00, 0x60, 0x00, 0x00, 0x00, 0x38, 0x00,
   0x00, 0x38, 0x00, 0x00, 0x00, 0x70, 0x00, 0x00, 0x1c, 0x00, 0x00, 0x00,
   0xc0, 0x03, 0x80, 0x07, 0x00, 0x00, 0x00, 0x80, 0x1f, 0xf0, 0x03, 0x00,
   0x00, 0x00, 0x00, 0xfc, 0x7f, 0x00, 0x00, 0x00, 0x00, 0x00, 0xe0, 0x0f,
   0x00, 0x00, 0x00, 0x00, 0x00, 0x00, 0x00, 0x00, 0x00, 0x00, 0x00, 0x00,
   0x00, 0x00, 0x00, 0x00, 0x00, 0x00, 0x00, 0x00, 0x00, 0x00, 0x00, 0x00,
   0x00, 0x00, 0x00, 0x00, 0x00, 0x00, 0x00, 0x00, 0x00, 0x00, 0x00, 0x00,
   0x00, 0x00};
