#define small_width 10
#define small_height 10
static char small_bits[] = {
   0x00, 0x00, 0x00, 0x00, 0xfc, 0x00, 0xfc, 0x00, 0xfc, 0x00, 0xfc, 0x00,
   0xfc, 0x00, 0xfc, 0x00, 0x00, 0x00, 0x00, 0x00};
