#define pattern_width 8
#define pattern_height 8
static char pattern_bits[] = {
   0x00, 0x38, 0x7c, 0x7c, 0x38, 0x20, 0x1c, 0x00};
